<mxfile host="app.diagrams.net" agent="Mozilla/5.0 (Windows NT 10.0; Win64; x64) AppleWebKit/537.36 (KHTML, like Gecko) Chrome/133.0.0.0 Safari/537.36" version="26.0.16">
  <diagram name="Seite-1" id="2OQOg79YSAG6KqtfN9Tc">
    <mxGraphModel dx="1593" dy="991" grid="1" gridSize="10" guides="1" tooltips="1" connect="1" arrows="1" fold="1" page="1" pageScale="1" pageWidth="827" pageHeight="1169" math="0" shadow="0">
      <root>
        <mxCell id="0" />
        <mxCell id="1" parent="0" />
        <mxCell id="uoeqbaUaetVYqua6u2rI-1" value="Eigentümer" style="rounded=0;whiteSpace=wrap;html=1;" vertex="1" parent="1">
          <mxGeometry x="260" y="200" width="260" height="90" as="geometry" />
        </mxCell>
        <mxCell id="uoeqbaUaetVYqua6u2rI-2" value="Name" style="ellipse;whiteSpace=wrap;html=1;" vertex="1" parent="1">
          <mxGeometry x="370" y="90" width="120" height="80" as="geometry" />
        </mxCell>
        <mxCell id="uoeqbaUaetVYqua6u2rI-3" value="Vorname" style="ellipse;whiteSpace=wrap;html=1;" vertex="1" parent="1">
          <mxGeometry x="500" y="100" width="120" height="80" as="geometry" />
        </mxCell>
        <mxCell id="uoeqbaUaetVYqua6u2rI-4" value="Geburtsdatum" style="ellipse;whiteSpace=wrap;html=1;" vertex="1" parent="1">
          <mxGeometry x="230" y="90" width="120" height="80" as="geometry" />
        </mxCell>
        <mxCell id="uoeqbaUaetVYqua6u2rI-5" value="Straße" style="ellipse;whiteSpace=wrap;html=1;" vertex="1" parent="1">
          <mxGeometry x="560" y="180" width="120" height="80" as="geometry" />
        </mxCell>
        <mxCell id="uoeqbaUaetVYqua6u2rI-8" value="" style="endArrow=none;html=1;rounded=0;exitX=0.924;exitY=-0.004;exitDx=0;exitDy=0;exitPerimeter=0;entryX=0.244;entryY=0.916;entryDx=0;entryDy=0;entryPerimeter=0;" edge="1" parent="1" source="uoeqbaUaetVYqua6u2rI-1" target="uoeqbaUaetVYqua6u2rI-3">
          <mxGeometry width="50" height="50" relative="1" as="geometry">
            <mxPoint x="510" y="190" as="sourcePoint" />
            <mxPoint x="520" y="180" as="targetPoint" />
          </mxGeometry>
        </mxCell>
        <mxCell id="uoeqbaUaetVYqua6u2rI-10" value="" style="endArrow=none;html=1;rounded=0;entryX=0.027;entryY=0.568;entryDx=0;entryDy=0;entryPerimeter=0;exitX=1;exitY=0.5;exitDx=0;exitDy=0;" edge="1" parent="1" source="uoeqbaUaetVYqua6u2rI-1" target="uoeqbaUaetVYqua6u2rI-5">
          <mxGeometry width="50" height="50" relative="1" as="geometry">
            <mxPoint x="360" y="260" as="sourcePoint" />
            <mxPoint x="410" y="210" as="targetPoint" />
          </mxGeometry>
        </mxCell>
        <mxCell id="uoeqbaUaetVYqua6u2rI-11" value="" style="endArrow=none;html=1;rounded=0;entryX=0.376;entryY=0.974;entryDx=0;entryDy=0;entryPerimeter=0;exitX=0.557;exitY=-0.053;exitDx=0;exitDy=0;exitPerimeter=0;" edge="1" parent="1" source="uoeqbaUaetVYqua6u2rI-1" target="uoeqbaUaetVYqua6u2rI-2">
          <mxGeometry width="50" height="50" relative="1" as="geometry">
            <mxPoint x="360" y="260" as="sourcePoint" />
            <mxPoint x="410" y="210" as="targetPoint" />
          </mxGeometry>
        </mxCell>
        <mxCell id="uoeqbaUaetVYqua6u2rI-12" value="" style="endArrow=none;html=1;rounded=0;entryX=0.628;entryY=0.998;entryDx=0;entryDy=0;entryPerimeter=0;exitX=0.206;exitY=-0.053;exitDx=0;exitDy=0;exitPerimeter=0;" edge="1" parent="1" source="uoeqbaUaetVYqua6u2rI-1" target="uoeqbaUaetVYqua6u2rI-4">
          <mxGeometry width="50" height="50" relative="1" as="geometry">
            <mxPoint x="360" y="260" as="sourcePoint" />
            <mxPoint x="410" y="210" as="targetPoint" />
          </mxGeometry>
        </mxCell>
        <mxCell id="uoeqbaUaetVYqua6u2rI-14" value="Fahrzeug" style="rounded=0;whiteSpace=wrap;html=1;" vertex="1" parent="1">
          <mxGeometry x="224" y="370" width="120" height="60" as="geometry" />
        </mxCell>
        <mxCell id="uoeqbaUaetVYqua6u2rI-15" value="&lt;u&gt;Fahrzeuggestellnummer&lt;/u&gt;" style="ellipse;whiteSpace=wrap;html=1;" vertex="1" parent="1">
          <mxGeometry x="20" y="300" width="170" height="80" as="geometry" />
        </mxCell>
        <mxCell id="uoeqbaUaetVYqua6u2rI-16" value="Baujahr" style="ellipse;whiteSpace=wrap;html=1;" vertex="1" parent="1">
          <mxGeometry x="10" y="400" width="170" height="80" as="geometry" />
        </mxCell>
        <mxCell id="uoeqbaUaetVYqua6u2rI-17" value="" style="endArrow=none;html=1;rounded=0;exitX=1;exitY=0.5;exitDx=0;exitDy=0;entryX=-0.012;entryY=0.4;entryDx=0;entryDy=0;entryPerimeter=0;" edge="1" parent="1" source="uoeqbaUaetVYqua6u2rI-15" target="uoeqbaUaetVYqua6u2rI-14">
          <mxGeometry width="50" height="50" relative="1" as="geometry">
            <mxPoint x="220" y="440" as="sourcePoint" />
            <mxPoint x="270" y="390" as="targetPoint" />
          </mxGeometry>
        </mxCell>
        <mxCell id="uoeqbaUaetVYqua6u2rI-30" style="edgeStyle=orthogonalEdgeStyle;rounded=0;orthogonalLoop=1;jettySize=auto;html=1;exitX=1;exitY=0.75;exitDx=0;exitDy=0;" edge="1" parent="1" source="uoeqbaUaetVYqua6u2rI-21" target="uoeqbaUaetVYqua6u2rI-24">
          <mxGeometry relative="1" as="geometry" />
        </mxCell>
        <mxCell id="uoeqbaUaetVYqua6u2rI-21" value="Typklasse" style="rounded=0;whiteSpace=wrap;html=1;" vertex="1" parent="1">
          <mxGeometry x="180" y="540" width="120" height="60" as="geometry" />
        </mxCell>
        <mxCell id="uoeqbaUaetVYqua6u2rI-22" value="&lt;u&gt;Typcode&lt;/u&gt;" style="ellipse;whiteSpace=wrap;html=1;" vertex="1" parent="1">
          <mxGeometry x="90" y="610" width="120" height="80" as="geometry" />
        </mxCell>
        <mxCell id="uoeqbaUaetVYqua6u2rI-23" value="Hersteller&lt;span style=&quot;color: rgba(0, 0, 0, 0); font-family: monospace; font-size: 0px; text-align: start; text-wrap-mode: nowrap;&quot;&gt;%3CmxGraphModel%3E%3Croot%3E%3CmxCell%20id%3D%220%22%2F%3E%3CmxCell%20id%3D%221%22%20parent%3D%220%22%2F%3E%3CmxCell%20id%3D%222%22%20value%3D%22%26lt%3Bu%26gt%3BTypcode%26lt%3B%2Fu%26gt%3B%22%20style%3D%22ellipse%3BwhiteSpace%3Dwrap%3Bhtml%3D1%3B%22%20vertex%3D%221%22%20parent%3D%221%22%3E%3CmxGeometry%20x%3D%22294%22%20y%3D%22560%22%20width%3D%22120%22%20height%3D%2280%22%20as%3D%22geometry%22%2F%3E%3C%2FmxCell%3E%3C%2Froot%3E%3C%2FmxGraphModel%3E&lt;/span&gt;" style="ellipse;whiteSpace=wrap;html=1;" vertex="1" parent="1">
          <mxGeometry x="224" y="660" width="106" height="70" as="geometry" />
        </mxCell>
        <mxCell id="uoeqbaUaetVYqua6u2rI-24" value="Modell" style="ellipse;whiteSpace=wrap;html=1;" vertex="1" parent="1">
          <mxGeometry x="310" y="580" width="120" height="80" as="geometry" />
        </mxCell>
        <mxCell id="uoeqbaUaetVYqua6u2rI-25" value="Schadstoffklasse" style="ellipse;whiteSpace=wrap;html=1;" vertex="1" parent="1">
          <mxGeometry x="320" y="480" width="120" height="80" as="geometry" />
        </mxCell>
        <mxCell id="uoeqbaUaetVYqua6u2rI-26" value="" style="endArrow=none;html=1;rounded=0;exitX=0.895;exitY=0.133;exitDx=0;exitDy=0;exitPerimeter=0;" edge="1" parent="1" source="uoeqbaUaetVYqua6u2rI-22">
          <mxGeometry width="50" height="50" relative="1" as="geometry">
            <mxPoint x="160" y="650" as="sourcePoint" />
            <mxPoint x="210" y="600" as="targetPoint" />
          </mxGeometry>
        </mxCell>
        <mxCell id="uoeqbaUaetVYqua6u2rI-28" value="" style="endArrow=none;html=1;rounded=0;exitX=0.39;exitY=-0.026;exitDx=0;exitDy=0;exitPerimeter=0;" edge="1" parent="1" source="uoeqbaUaetVYqua6u2rI-23">
          <mxGeometry width="50" height="50" relative="1" as="geometry">
            <mxPoint x="224" y="650" as="sourcePoint" />
            <mxPoint x="274" y="600" as="targetPoint" />
          </mxGeometry>
        </mxCell>
        <mxCell id="uoeqbaUaetVYqua6u2rI-29" style="edgeStyle=orthogonalEdgeStyle;rounded=0;orthogonalLoop=1;jettySize=auto;html=1;entryX=0.094;entryY=0.779;entryDx=0;entryDy=0;entryPerimeter=0;" edge="1" parent="1" source="uoeqbaUaetVYqua6u2rI-21" target="uoeqbaUaetVYqua6u2rI-25">
          <mxGeometry relative="1" as="geometry" />
        </mxCell>
        <mxCell id="uoeqbaUaetVYqua6u2rI-31" style="edgeStyle=orthogonalEdgeStyle;rounded=0;orthogonalLoop=1;jettySize=auto;html=1;entryX=0.991;entryY=0.444;entryDx=0;entryDy=0;entryPerimeter=0;" edge="1" parent="1" source="uoeqbaUaetVYqua6u2rI-14" target="uoeqbaUaetVYqua6u2rI-16">
          <mxGeometry relative="1" as="geometry" />
        </mxCell>
        <mxCell id="uoeqbaUaetVYqua6u2rI-32" value="Zulassung" style="rounded=0;whiteSpace=wrap;html=1;" vertex="1" parent="1">
          <mxGeometry x="530" y="360" width="120" height="60" as="geometry" />
        </mxCell>
        <mxCell id="uoeqbaUaetVYqua6u2rI-34" value="&lt;u&gt;Kennzeichen&lt;/u&gt;" style="ellipse;whiteSpace=wrap;html=1;" vertex="1" parent="1">
          <mxGeometry x="590" y="430" width="90" height="70" as="geometry" />
        </mxCell>
        <mxCell id="uoeqbaUaetVYqua6u2rI-35" value="Zulassungsdatum" style="ellipse;whiteSpace=wrap;html=1;" vertex="1" parent="1">
          <mxGeometry x="670" y="380" width="100" height="60" as="geometry" />
        </mxCell>
        <mxCell id="uoeqbaUaetVYqua6u2rI-36" value="Abmeldedatum" style="ellipse;whiteSpace=wrap;html=1;" vertex="1" parent="1">
          <mxGeometry x="650" y="280" width="100" height="70" as="geometry" />
        </mxCell>
        <mxCell id="uoeqbaUaetVYqua6u2rI-37" value="Besitzverlauf" style="rounded=0;whiteSpace=wrap;html=1;" vertex="1" parent="1">
          <mxGeometry x="520" y="660" width="260" height="90" as="geometry" />
        </mxCell>
        <mxCell id="uoeqbaUaetVYqua6u2rI-38" value="Beginn (Datum)" style="ellipse;whiteSpace=wrap;html=1;" vertex="1" parent="1">
          <mxGeometry x="520" y="770" width="120" height="80" as="geometry" />
        </mxCell>
        <mxCell id="uoeqbaUaetVYqua6u2rI-39" value="Ende (Optional)" style="ellipse;whiteSpace=wrap;html=1;" vertex="1" parent="1">
          <mxGeometry x="660" y="770" width="120" height="80" as="geometry" />
        </mxCell>
        <mxCell id="uoeqbaUaetVYqua6u2rI-42" value="" style="endArrow=none;html=1;rounded=0;exitX=0.613;exitY=0.001;exitDx=0;exitDy=0;exitPerimeter=0;" edge="1" parent="1" source="uoeqbaUaetVYqua6u2rI-38">
          <mxGeometry width="50" height="50" relative="1" as="geometry">
            <mxPoint x="560" y="800" as="sourcePoint" />
            <mxPoint x="610" y="750" as="targetPoint" />
          </mxGeometry>
        </mxCell>
        <mxCell id="uoeqbaUaetVYqua6u2rI-43" value="" style="endArrow=none;html=1;rounded=0;" edge="1" parent="1" source="uoeqbaUaetVYqua6u2rI-39">
          <mxGeometry width="50" height="50" relative="1" as="geometry">
            <mxPoint x="645" y="800" as="sourcePoint" />
            <mxPoint x="695" y="750" as="targetPoint" />
          </mxGeometry>
        </mxCell>
        <mxCell id="uoeqbaUaetVYqua6u2rI-44" value="&lt;font style=&quot;font-size: 5.7px;&quot;&gt;Beziehung&lt;/font&gt;" style="rhombus;whiteSpace=wrap;html=1;" vertex="1" parent="1">
          <mxGeometry x="267" y="310" width="43" height="40" as="geometry" />
        </mxCell>
        <mxCell id="uoeqbaUaetVYqua6u2rI-46" value="" style="endArrow=none;html=1;rounded=0;" edge="1" parent="1">
          <mxGeometry width="50" height="50" relative="1" as="geometry">
            <mxPoint x="289" y="310" as="sourcePoint" />
            <mxPoint x="290" y="290" as="targetPoint" />
          </mxGeometry>
        </mxCell>
        <mxCell id="uoeqbaUaetVYqua6u2rI-48" value="" style="endArrow=none;html=1;rounded=0;" edge="1" parent="1">
          <mxGeometry width="50" height="50" relative="1" as="geometry">
            <mxPoint x="290" y="370" as="sourcePoint" />
            <mxPoint x="289.87" y="350" as="targetPoint" />
          </mxGeometry>
        </mxCell>
        <mxCell id="uoeqbaUaetVYqua6u2rI-49" value="&lt;font style=&quot;font-size: 5.7px;&quot;&gt;Beziehung&lt;/font&gt;" style="rhombus;whiteSpace=wrap;html=1;" vertex="1" parent="1">
          <mxGeometry x="240" y="480" width="43" height="40" as="geometry" />
        </mxCell>
        <mxCell id="uoeqbaUaetVYqua6u2rI-50" value="" style="endArrow=none;html=1;rounded=0;" edge="1" parent="1">
          <mxGeometry width="50" height="50" relative="1" as="geometry">
            <mxPoint x="263" y="540" as="sourcePoint" />
            <mxPoint x="262.87" y="520" as="targetPoint" />
          </mxGeometry>
        </mxCell>
        <mxCell id="uoeqbaUaetVYqua6u2rI-54" value="" style="endArrow=none;html=1;rounded=0;entryX=0.307;entryY=1.046;entryDx=0;entryDy=0;entryPerimeter=0;" edge="1" parent="1" target="uoeqbaUaetVYqua6u2rI-14">
          <mxGeometry width="50" height="50" relative="1" as="geometry">
            <mxPoint x="260.13" y="480" as="sourcePoint" />
            <mxPoint x="260" y="460" as="targetPoint" />
          </mxGeometry>
        </mxCell>
        <mxCell id="uoeqbaUaetVYqua6u2rI-55" value="&lt;font style=&quot;font-size: 5.7px;&quot;&gt;Beziehung&lt;/font&gt;" style="rhombus;whiteSpace=wrap;html=1;" vertex="1" parent="1">
          <mxGeometry x="410" y="370" width="43" height="40" as="geometry" />
        </mxCell>
        <mxCell id="uoeqbaUaetVYqua6u2rI-60" value="" style="endArrow=none;html=1;rounded=0;entryX=-0.09;entryY=0.472;entryDx=0;entryDy=0;entryPerimeter=0;exitX=1.003;exitY=0.325;exitDx=0;exitDy=0;exitPerimeter=0;" edge="1" parent="1" source="uoeqbaUaetVYqua6u2rI-14">
          <mxGeometry width="50" height="50" relative="1" as="geometry">
            <mxPoint x="347.27" y="389.77" as="sourcePoint" />
            <mxPoint x="410" y="390.23" as="targetPoint" />
          </mxGeometry>
        </mxCell>
        <mxCell id="uoeqbaUaetVYqua6u2rI-61" value="" style="endArrow=none;html=1;rounded=0;entryX=0;entryY=0.5;entryDx=0;entryDy=0;exitX=1;exitY=0.5;exitDx=0;exitDy=0;" edge="1" parent="1" source="uoeqbaUaetVYqua6u2rI-55" target="uoeqbaUaetVYqua6u2rI-32">
          <mxGeometry width="50" height="50" relative="1" as="geometry">
            <mxPoint x="330" y="450" as="sourcePoint" />
            <mxPoint x="380" y="400" as="targetPoint" />
          </mxGeometry>
        </mxCell>
        <mxCell id="uoeqbaUaetVYqua6u2rI-63" value="&lt;font style=&quot;font-size: 5.7px;&quot;&gt;Beziehung&lt;/font&gt;" style="rhombus;whiteSpace=wrap;html=1;" vertex="1" parent="1">
          <mxGeometry x="538.5" y="590" width="43" height="40" as="geometry" />
        </mxCell>
        <mxCell id="uoeqbaUaetVYqua6u2rI-64" value="" style="endArrow=none;html=1;rounded=0;" edge="1" parent="1">
          <mxGeometry width="50" height="50" relative="1" as="geometry">
            <mxPoint x="560" y="589" as="sourcePoint" />
            <mxPoint x="480" y="290" as="targetPoint" />
          </mxGeometry>
        </mxCell>
        <mxCell id="uoeqbaUaetVYqua6u2rI-65" value="" style="endArrow=none;html=1;rounded=0;exitX=0.188;exitY=-0.014;exitDx=0;exitDy=0;exitPerimeter=0;" edge="1" parent="1" source="uoeqbaUaetVYqua6u2rI-37">
          <mxGeometry width="50" height="50" relative="1" as="geometry">
            <mxPoint x="510" y="680" as="sourcePoint" />
            <mxPoint x="560" y="630" as="targetPoint" />
          </mxGeometry>
        </mxCell>
        <mxCell id="uoeqbaUaetVYqua6u2rI-66" value="" style="endArrow=none;html=1;rounded=0;entryX=0.089;entryY=0.796;entryDx=0;entryDy=0;entryPerimeter=0;exitX=1;exitY=0;exitDx=0;exitDy=0;" edge="1" parent="1" source="uoeqbaUaetVYqua6u2rI-32" target="uoeqbaUaetVYqua6u2rI-36">
          <mxGeometry width="50" height="50" relative="1" as="geometry">
            <mxPoint x="640" y="350" as="sourcePoint" />
            <mxPoint x="650" y="340" as="targetPoint" />
          </mxGeometry>
        </mxCell>
        <mxCell id="uoeqbaUaetVYqua6u2rI-71" value="" style="endArrow=none;html=1;rounded=0;entryX=0;entryY=0.5;entryDx=0;entryDy=0;" edge="1" parent="1" target="uoeqbaUaetVYqua6u2rI-35">
          <mxGeometry width="50" height="50" relative="1" as="geometry">
            <mxPoint x="650" y="400" as="sourcePoint" />
            <mxPoint x="700" y="350" as="targetPoint" />
          </mxGeometry>
        </mxCell>
        <mxCell id="uoeqbaUaetVYqua6u2rI-73" value="" style="endArrow=none;html=1;rounded=0;exitX=0;exitY=0;exitDx=0;exitDy=0;" edge="1" parent="1" source="uoeqbaUaetVYqua6u2rI-34">
          <mxGeometry width="50" height="50" relative="1" as="geometry">
            <mxPoint x="550" y="470" as="sourcePoint" />
            <mxPoint x="600" y="420" as="targetPoint" />
          </mxGeometry>
        </mxCell>
        <mxCell id="uoeqbaUaetVYqua6u2rI-74" value="&lt;u&gt;Eigentümer_ID&lt;/u&gt;" style="ellipse;whiteSpace=wrap;html=1;" vertex="1" parent="1">
          <mxGeometry x="630" y="570" width="120" height="80" as="geometry" />
        </mxCell>
        <mxCell id="uoeqbaUaetVYqua6u2rI-75" value="" style="endArrow=none;html=1;rounded=0;exitX=0;exitY=0.5;exitDx=0;exitDy=0;" edge="1" parent="1" source="uoeqbaUaetVYqua6u2rI-1">
          <mxGeometry width="50" height="50" relative="1" as="geometry">
            <mxPoint x="170" y="260" as="sourcePoint" />
            <mxPoint x="220" y="210" as="targetPoint" />
          </mxGeometry>
        </mxCell>
        <mxCell id="uoeqbaUaetVYqua6u2rI-76" value="1" style="text;html=1;align=center;verticalAlign=middle;whiteSpace=wrap;rounded=0;" vertex="1" parent="1">
          <mxGeometry x="250" y="290" width="60" height="30" as="geometry" />
        </mxCell>
        <mxCell id="uoeqbaUaetVYqua6u2rI-77" value="N" style="text;html=1;align=center;verticalAlign=middle;whiteSpace=wrap;rounded=0;" vertex="1" parent="1">
          <mxGeometry x="250" y="349" width="60" height="30" as="geometry" />
        </mxCell>
        <mxCell id="uoeqbaUaetVYqua6u2rI-82" value="N" style="text;html=1;align=center;verticalAlign=middle;whiteSpace=wrap;rounded=0;" vertex="1" parent="1">
          <mxGeometry x="223" y="430" width="60" height="30" as="geometry" />
        </mxCell>
        <mxCell id="uoeqbaUaetVYqua6u2rI-84" value="1" style="text;html=1;align=center;verticalAlign=middle;whiteSpace=wrap;rounded=0;" vertex="1" parent="1">
          <mxGeometry x="223" y="520" width="60" height="30" as="geometry" />
        </mxCell>
        <mxCell id="uoeqbaUaetVYqua6u2rI-88" value="1" style="text;html=1;align=center;verticalAlign=middle;whiteSpace=wrap;rounded=0;" vertex="1" parent="1">
          <mxGeometry x="320" y="385" width="60" height="30" as="geometry" />
        </mxCell>
        <mxCell id="uoeqbaUaetVYqua6u2rI-89" value="N" style="text;html=1;align=center;verticalAlign=middle;whiteSpace=wrap;rounded=0;" vertex="1" parent="1">
          <mxGeometry x="490" y="385" width="60" height="30" as="geometry" />
        </mxCell>
        <mxCell id="uoeqbaUaetVYqua6u2rI-94" value="1" style="text;html=1;align=center;verticalAlign=middle;whiteSpace=wrap;rounded=0;" vertex="1" parent="1">
          <mxGeometry x="430" y="290" width="60" height="30" as="geometry" />
        </mxCell>
        <mxCell id="uoeqbaUaetVYqua6u2rI-95" value="N" style="text;html=1;align=center;verticalAlign=middle;whiteSpace=wrap;rounded=0;" vertex="1" parent="1">
          <mxGeometry x="560" y="630" width="60" height="30" as="geometry" />
        </mxCell>
        <mxCell id="uoeqbaUaetVYqua6u2rI-96" value="Ort" style="ellipse;whiteSpace=wrap;html=1;" vertex="1" parent="1">
          <mxGeometry x="550" y="260" width="50" height="30" as="geometry" />
        </mxCell>
        <mxCell id="uoeqbaUaetVYqua6u2rI-97" value="PLZ" style="ellipse;whiteSpace=wrap;html=1;" vertex="1" parent="1">
          <mxGeometry x="531.5" y="300" width="50" height="30" as="geometry" />
        </mxCell>
        <mxCell id="uoeqbaUaetVYqua6u2rI-99" value="" style="endArrow=none;html=1;rounded=0;exitX=1;exitY=0.75;exitDx=0;exitDy=0;" edge="1" parent="1" source="uoeqbaUaetVYqua6u2rI-1">
          <mxGeometry width="50" height="50" relative="1" as="geometry">
            <mxPoint x="500" y="320" as="sourcePoint" />
            <mxPoint x="550" y="270" as="targetPoint" />
          </mxGeometry>
        </mxCell>
        <mxCell id="uoeqbaUaetVYqua6u2rI-100" value="" style="endArrow=none;html=1;rounded=0;exitX=0.052;exitY=0.378;exitDx=0;exitDy=0;exitPerimeter=0;" edge="1" parent="1" source="uoeqbaUaetVYqua6u2rI-97">
          <mxGeometry width="50" height="50" relative="1" as="geometry">
            <mxPoint x="470" y="340" as="sourcePoint" />
            <mxPoint x="520" y="290" as="targetPoint" />
          </mxGeometry>
        </mxCell>
        <mxCell id="uoeqbaUaetVYqua6u2rI-101" value="&lt;u&gt;Fahrzeuggestellnummer&lt;/u&gt;" style="ellipse;whiteSpace=wrap;html=1;" vertex="1" parent="1">
          <mxGeometry x="760" y="590" width="136" height="70" as="geometry" />
        </mxCell>
        <mxCell id="uoeqbaUaetVYqua6u2rI-102" value="&lt;u&gt;Eigentümer_ID&lt;/u&gt;" style="ellipse;whiteSpace=wrap;html=1;" vertex="1" parent="1">
          <mxGeometry x="130" y="150" width="120" height="80" as="geometry" />
        </mxCell>
      </root>
    </mxGraphModel>
  </diagram>
</mxfile>
